<?xml version="1.0" encoding="UTF-8"?>
<svg width="15.44px" height="16px" viewBox="0 0 15.44 16" version="1.1" xmlns="http://www.w3.org/2000/svg" xmlns:xlink="http://www.w3.org/1999/xlink">
    <title>favicon_safari</title>
    <g id="Page-1" stroke="none" stroke-width="1" fill="none" fill-rule="evenodd">
        <g id="16x16-saf" transform="translate(-0.280000, 0.000000)" fill="#FFFFFF" fill-rule="nonzero">
            <path d="M8,0 C12.2831067,0 15.72,3.7355861 15.72,8.30402025 C15.72,10.4116163 14.9828061,12.3790652 13.7297617,13.8717873 L13.618,13.999 L14.9998544,13.9993722 L15.0001456,15.9993721 L10.6887398,16 C9.62244851,16 9.29637466,14.55424 10.2595257,14.096728 C12.3345669,13.1110506 13.72,10.8538764 13.72,8.30402025 C13.72,4.80465641 11.1396004,2 8,2 C4.86039962,2 2.28,4.80465641 2.28,8.30402025 C2.28,10.8538764 3.66543313,13.1110506 5.74047432,14.096728 C6.70362534,14.55424 6.37755149,16 5.3112602,16 L0.999854375,15.9993721 L1.00014563,13.9993722 L2.381,13.999 L2.27023833,13.8717873 C1.07686266,12.4501472 0.35137867,10.5979159 0.284991024,8.60411589 L0.28,8.30402025 C0.28,3.7355861 3.71689334,0 8,0 Z M8.10250569,4 C10.0569476,4 11,5.3158956 11,7.22763318 L11,10.841794 C11,11.3301941 10.8906606,11.469737 10.5079727,11.6371885 C9.96127563,11.8744114 9.14123007,12 8.04783599,12 C6.88610478,12 6.09339408,11.8185942 5.65603645,11.4418284 C5.21867882,11.0790169 5,10.458811 5,9.69132512 C5,8.03076473 5.87471526,7.39660452 8.10250569,7.39660452 C8.19817768,7.39660452 8.63553531,7.4245131 9.41457859,7.46637597 L9.44191344,6.81876637 C9.44191344,5.91173759 9.05922551,5.43729176 8.07517084,5.43729176 C7.40546697,5.43729176 6.92710706,5.66056038 6.64009112,6.10709763 C6.43507973,6.4001377 6.3667426,6.42804628 6.0523918,6.31641196 L5.50569476,6.07918905 C5.20501139,5.93964616 5.12300683,5.73033183 5.27334852,5.45124605 C5.76537585,4.48840011 6.70842825,4 8.10250569,4 Z M7.94052379,8.72268406 L7.92482916,8.72226197 C6.94077449,8.72226197 6.61275626,9.06338212 6.61275626,9.67737083 C6.61275626,10.3053138 6.89977221,10.6603883 7.89749431,10.6603883 C8.48519362,10.6603883 8.93621868,10.6185254 9.2642369,10.548754 C9.35990888,10.5068911 9.41457859,10.4510739 9.41457859,10.3533939 L9.41457859,8.79203342 C8.45785877,8.75017055 7.96583144,8.72226197 7.92482916,8.72226197 Z" id="favicon_safari"></path>
        </g>
    </g>
</svg>