<?xml version="1.0" encoding="UTF-8"?>
<svg width="129.864px" height="27.0010315px" viewBox="0 0 129.864 27.0010315" version="1.1" xmlns="http://www.w3.org/2000/svg" xmlns:xlink="http://www.w3.org/1999/xlink">
    <title>singoling_logo</title>
    <g id="Page-1" stroke="none" stroke-width="1" fill="none" fill-rule="evenodd">
        <g id="Large" transform="translate(-18.500000, -21.000000)">
            <g id="singoling_logo" transform="translate(20.000000, 22.000000)">
                <g id="a-copy" transform="translate(7.800000, 6.968691)" fill="#FFFFFF" fill-rule="nonzero">
                    <path d="M0.42,2.184 C0.189,2.604 0.315,2.919 0.777,3.129 L1.617,3.486 C2.1,3.654 2.205,3.612 2.52,3.171 C2.961,2.499 3.696,2.163 4.725,2.163 C6.237,2.163 6.825,2.877 6.825,4.242 L6.783,5.21659654 C5.586,5.15359654 4.914,5.11159654 4.767,5.11159654 C1.344,5.11159654 0,6.0659529 0,8.5649529 C0,9.7199529 0.336,10.6533093 1.008,11.1993093 C1.68,11.7663093 2.898,12.0393093 4.683,12.0393093 C6.363,12.0393093 7.623,11.8503093 8.463,11.4933093 C9.051,11.2413093 9.219,11.0313093 9.219,10.2963093 L9.219,4.85730925 C9.219,1.98030925 7.77,0 4.767,0 C2.625,0 1.176,0.735 0.42,2.184 Z M6.783,9.56130925 C6.783,9.70830925 6.699,9.79230925 6.552,9.85530925 C6.048,9.96030925 5.355,10.0233093 4.452,10.0233093 C2.919,10.0233093 2.478,9.4889529 2.478,8.5439529 C2.478,7.6199529 2.982,7.10659654 4.494,7.10659654 C4.557,7.10659654 5.313,7.14859654 6.783,7.21159654 L6.783,9.56130925 Z" id="Shape"></path>
                </g>
                <path d="M0,24 L7.69893898,24.0010315 C3.4613342,22.1490534 0.5,17.920355 0.5,13 C0.5,6.372583 5.872583,1 12.5,1 C19.127417,1 24.5,6.372583 24.5,13 C24.5,17.920355 21.5386658,22.1490534 17.301061,24.0010315 L25,24" id="Path" stroke="#FFFFFF" stroke-width="4" stroke-linejoin="round"></path>
                <g id="SingoLing" transform="translate(36.646000, 4.676000)" fill="#FFFFFF" fill-rule="nonzero">
                    <path d="M8.514,1.804 C7.678,1.54 6.49,1.232 4.972,1.232 C1.54,1.232 0.11,3.124 0.11,5.588 C0.11,7.766 1.452,8.778 2.948,9.57 C4.444,10.362 5.808,10.846 5.808,12.144 C5.808,13.2 5.148,13.794 3.718,13.794 C1.936,13.794 0.704,13.2 0.132,12.936 L0,15.95 C0.484,16.148 1.826,16.588 3.652,16.588 C7.106,16.588 9.152,15.07 9.152,11.858 C9.152,9.372 7.568,8.492 6.094,7.744 C4.62,6.996 3.41,6.534 3.41,5.39 C3.41,4.444 3.938,3.872 5.126,3.872 C6.49,3.872 7.898,4.378 8.404,4.62 L8.514,1.804 Z" id="Path"></path>
                    <path d="M14.63,1.87 C14.63,0.462 13.794,0 12.782,0 C11.682,0 10.89,0.462 10.89,1.892 C10.89,3.234 11.682,3.784 12.804,3.784 C13.794,3.784 14.63,3.234 14.63,1.87 Z M14.322,5.324 L11.198,5.324 L11.198,16.324 L14.322,16.324 L14.322,5.324 Z" id="Shape"></path>
                    <path d="M26.466,16.324 L26.466,8.668 C26.466,6.358 24.838,5.214 22.704,5.214 C21.714,5.214 20.614,5.566 19.998,5.94 L19.998,5.324 L16.874,5.324 L16.874,16.324 L19.998,16.324 L19.998,8.382 C20.328,8.228 20.988,8.008 21.78,8.008 C22.748,8.008 23.342,8.382 23.342,9.394 L23.342,16.324 L26.466,16.324 Z" id="Path"></path>
                    <path d="M39.402,5.17 C37.378,5.082 36.476,5.654 36.102,5.918 C35.662,5.544 34.76,5.104 33.132,5.104 C30.206,5.104 28.446,6.644 28.446,9.152 C28.446,10.648 29.106,11.858 30.228,12.364 C29.656,12.76 29.304,13.442 29.304,14.036 C29.304,14.432 29.458,14.828 29.678,15.07 C28.512,15.84 28.006,16.896 28.006,17.908 C28.006,19.778 29.392,20.988 32.78,20.988 C36.454,20.988 38.236,19.734 38.236,17.248 C38.236,14.762 35.772,14.454 33.99,14.234 C32.802,14.08 32.208,13.97 32.208,13.486 C32.208,13.222 32.274,13.046 32.428,12.87 C32.45,12.87 32.626,12.892 32.912,12.892 C36.146,12.892 37.774,11.682 37.774,9.152 C37.774,8.734 37.664,7.986 37.488,7.678 C37.598,7.634 37.928,7.546 38.478,7.546 C38.698,7.546 39.028,7.568 39.358,7.612 L39.402,5.17 Z M34.562,9.02 C34.562,9.966 34.122,10.626 33.066,10.626 C32.098,10.626 31.658,9.966 31.658,9.02 C31.658,8.03 32.12,7.414 33.066,7.414 C34.122,7.414 34.562,8.074 34.562,9.02 Z M35.002,17.49 C35.002,18.128 34.43,18.546 33.088,18.546 C31.746,18.546 31.196,18.106 31.196,17.402 C31.196,16.632 31.702,16.236 31.724,16.236 C32.296,16.412 32.648,16.456 33.352,16.544 C34.43,16.676 35.002,16.632 35.002,17.49 Z" id="Shape"></path>
                    <path d="M51.106,10.802 C51.106,6.864 49.104,5.104 45.716,5.104 C42.614,5.104 40.216,7.106 40.216,10.89 C40.216,14.784 42.306,16.544 45.606,16.544 C48.972,16.544 51.106,14.696 51.106,10.802 Z M47.894,10.802 C47.894,13.112 47.102,13.86 45.606,13.86 C44.242,13.86 43.428,13.112 43.428,10.802 C43.428,8.536 44.22,7.7 45.716,7.7 C47.212,7.7 47.894,8.536 47.894,10.802 Z" id="Shape"></path>
                    <polygon id="Path" points="56.562 1.496 53.35 1.496 53.35 16.324 61.952 16.324 61.952 13.53 56.562 13.53"></polygon>
                    <path d="M66.946,1.87 C66.946,0.462 66.11,0 65.098,0 C63.998,0 63.206,0.462 63.206,1.892 C63.206,3.234 63.998,3.784 65.12,3.784 C66.11,3.784 66.946,3.234 66.946,1.87 Z M66.638,5.324 L63.514,5.324 L63.514,16.324 L66.638,16.324 L66.638,5.324 Z" id="Shape"></path>
                    <path d="M78.782,16.324 L78.782,8.668 C78.782,6.358 77.154,5.214 75.02,5.214 C74.03,5.214 72.93,5.566 72.314,5.94 L72.314,5.324 L69.19,5.324 L69.19,16.324 L72.314,16.324 L72.314,8.382 C72.644,8.228 73.304,8.008 74.096,8.008 C75.064,8.008 75.658,8.382 75.658,9.394 L75.658,16.324 L78.782,16.324 Z" id="Path"></path>
                    <path d="M91.718,5.17 C89.694,5.082 88.792,5.654 88.418,5.918 C87.978,5.544 87.076,5.104 85.448,5.104 C82.522,5.104 80.762,6.644 80.762,9.152 C80.762,10.648 81.422,11.858 82.544,12.364 C81.972,12.76 81.62,13.442 81.62,14.036 C81.62,14.432 81.774,14.828 81.994,15.07 C80.828,15.84 80.322,16.896 80.322,17.908 C80.322,19.778 81.708,20.988 85.096,20.988 C88.77,20.988 90.552,19.734 90.552,17.248 C90.552,14.762 88.088,14.454 86.306,14.234 C85.118,14.08 84.524,13.97 84.524,13.486 C84.524,13.222 84.59,13.046 84.744,12.87 C84.766,12.87 84.942,12.892 85.228,12.892 C88.462,12.892 90.09,11.682 90.09,9.152 C90.09,8.734 89.98,7.986 89.804,7.678 C89.914,7.634 90.244,7.546 90.794,7.546 C91.014,7.546 91.344,7.568 91.674,7.612 L91.718,5.17 Z M86.878,9.02 C86.878,9.966 86.438,10.626 85.382,10.626 C84.414,10.626 83.974,9.966 83.974,9.02 C83.974,8.03 84.436,7.414 85.382,7.414 C86.438,7.414 86.878,8.074 86.878,9.02 Z M87.318,17.49 C87.318,18.128 86.746,18.546 85.404,18.546 C84.062,18.546 83.512,18.106 83.512,17.402 C83.512,16.632 84.018,16.236 84.04,16.236 C84.612,16.412 84.964,16.456 85.668,16.544 C86.746,16.676 87.318,16.632 87.318,17.49 Z" id="Shape"></path>
                </g>
            </g>
        </g>
    </g>
</svg>